<svg id="Layer_1" data-name="Layer 1" xmlns="http://www.w3.org/2000/svg" viewBox="0 0 14 20"><defs><style>.cls-1{opacity:0.4;isolation:isolate;}</style></defs><g id="Location"><path id="Path_34175" data-name="Path 34175" d="M553,403.67h0a.89.89,0,0,1-.39-.12,18.54,18.54,0,0,1-4.84-4.55,9.29,9.29,0,0,1-1.81-5.2,7.17,7.17,0,0,1,3.53-6.2,6.91,6.91,0,0,1,7,.06,7.29,7.29,0,0,1,2.52,2.68,7.37,7.37,0,0,1,.91,3.59,10.52,10.52,0,0,1-3.19,6.77,18.48,18.48,0,0,1-3.36,2.82A1.44,1.44,0,0,1,553,403.67Zm0-12.16a2.38,2.38,0,0,0-1.68.71,2.46,2.46,0,0,0-.51,2.64,2.36,2.36,0,0,0,2.2,1.5h0a2.33,2.33,0,0,0,1.67-.7,2.46,2.46,0,0,0,0-3.47,2.33,2.33,0,0,0-.72-.48A2.24,2.24,0,0,0,553,391.51Z" transform="translate(-546 -386.67)"/><ellipse id="Ellipse_743" data-name="Ellipse 743" class="cls-1" cx="7" cy="19" rx="5" ry="1"/></g></svg>